<?xml version="1.0" standalone="no"?>
<!DOCTYPE svg PUBLIC "-//W3C//DTD SVG 20010904//EN"
 "http://www.w3.org/TR/2001/REC-SVG-20010904/DTD/svg10.dtd">
<svg version="1.0" xmlns="http://www.w3.org/2000/svg"
 width="512.000000pt" height="512.000000pt" viewBox="0 0 512.000000 512.000000"
 preserveAspectRatio="xMidYMid meet">

<g transform="translate(0.000000,512.000000) scale(0.100000,-0.100000)"
fill="#000000" stroke="none">
<path d="M1563 3816 c-101 -33 -190 -113 -241 -216 -24 -50 -27 -66 -27 -165
0 -174 -4 -168 379 -553 l320 -322 -321 -323 c-383 -383 -378 -376 -378 -552
0 -101 2 -115 29 -170 38 -77 114 -153 191 -191 55 -27 69 -29 170 -29 174 0
168 -4 553 379 l322 320 323 -321 c383 -383 376 -378 552 -378 101 0 115 2
170 29 77 38 153 114 191 191 27 55 29 69 29 170 0 176 5 168 -378 552 l-321
323 321 323 c383 384 378 376 378 552 0 101 -2 115 -29 170 -38 77 -114 153
-191 191 -55 27 -69 29 -170 29 -176 0 -168 5 -552 -378 l-323 -321 -323 321
c-375 375 -376 375 -537 380 -61 2 -110 -2 -137 -11z"/>
</g>
</svg>
