<?xml version="1.0" standalone="no"?>
<!DOCTYPE svg PUBLIC "-//W3C//DTD SVG 20010904//EN"
 "http://www.w3.org/TR/2001/REC-SVG-20010904/DTD/svg10.dtd">
<svg version="1.0" xmlns="http://www.w3.org/2000/svg"
 width="91.000000pt" height="80.000000pt" viewBox="0 0 91.000000 80.000000"
 preserveAspectRatio="xMidYMid meet">

<g transform="translate(0.000000,80.000000) scale(0.100000,-0.100000)"
fill="#000000" stroke="none">
<path d="M0 400 l0 -400 455 0 455 0 0 400 0 400 -455 0 -455 0 0 -400z m538
262 c42 -31 65 -85 59 -140 -16 -144 -202 -180 -270 -51 -23 44 -18 115 11
156 45 64 137 79 200 35z m73 -370 c91 -40 149 -111 149 -182 l0 -30 -305 0
-305 0 0 30 c0 87 82 168 205 201 53 15 206 3 256 -19z"/>
</g>
</svg>
